<svg width="171" height="33" viewBox="0 0 171 33" fill="none" xmlns="http://www.w3.org/2000/svg">
<path d="M115.346 1.17693C112.842 2.8196 111.794 5.8116 113.044 7.74393C114.298 9.66527 117.299 9.80827 119.88 8.1656C122.385 6.46427 123.366 3.54193 122.19 1.6096C121.506 0.538934 120.299 0.00360107 118.946 0.00360107C117.788 0.00360107 116.504 0.384934 115.346 1.1806V1.17693ZM82.9405 4.47327C80.2413 4.55027 79.3183 4.55027 79.3183 4.55027L77.8877 10.8716H74.0559C74.0559 10.8716 75.1885 11.5793 75.8284 12.8516C76.3248 14.0396 76.5418 15.6639 76.1814 17.5706C75.5526 21.1456 74.7693 24.5996 74.7693 24.5996C73.405 30.7229 75.8946 32.6846 81.727 32.6846C83.2237 32.6846 85.3492 32.5526 86.8459 32.2703L88.0558 26.4953C86.7135 26.7116 85.5662 26.7776 84.7866 26.7776C83.5767 26.7776 82.8596 26.0039 82.9368 25.0983C82.9368 24.3246 83.1465 23.4739 83.2899 22.7663L84.7204 16.2946H90.2586L91.5346 10.8679H85.7096L87.2063 4.33027C87.2063 4.33027 85.9303 4.40727 82.9368 4.47327H82.9405ZM0 22.6819C0 27.3459 1.97477 32.9999 11.5655 32.9999C17.2103 32.9999 22.4985 29.5313 23.7745 23.4483H15.6621C15.0186 25.2963 13.6212 27.3423 11.5692 27.3423C9.10161 27.3423 8.4691 25.5053 8.67503 22.4619C8.81845 20.9073 9.73413 15.4036 13.4777 15.4036C16.1549 15.4036 16.3719 18.1499 16.3719 19.2133H24.4769C24.5431 13.0643 20.1081 9.74593 13.7535 9.74593C5.29548 9.74593 0 16.3863 0 22.6819ZM25.1094 23.1916C25.1094 28.9043 28.5184 32.9999 36.4837 32.9999C44.6549 32.9999 47.4203 27.2873 47.9903 25.8793H40.0287C39.4661 27.0049 38.6092 27.7786 36.8367 27.7786C35.2738 27.7786 34.417 27.0013 33.9904 26.2276C33.5712 25.3843 33.3505 24.3943 33.4277 23.1916H48.8508C49.1266 22.1319 49.2701 20.9293 49.2701 19.5213C49.2701 13.0313 44.4416 10.0613 38.6791 10.0613C32.4312 10.0613 25.1168 13.9479 25.1168 23.1879L25.1094 23.1916ZM38.3849 15.1139C40.7311 15.1139 41.8637 16.4633 41.4445 19.0336H34.1117C34.6928 16.8263 36.1711 15.1139 38.3849 15.1139ZM144.298 23.7489C144.298 27.6466 145.839 32.6809 152.116 32.6809C154.93 32.6809 157.747 31.1886 158.945 29.5533V29.6303C158.945 30.4773 159.012 31.4746 159.372 32.1786H167.54C167.113 31.0493 167.113 29.1279 167.606 26.8656C168.032 24.9553 170.996 10.6259 170.996 10.6259H162.829L162.185 13.4016C161.203 11.4069 159.096 10.0649 155.849 10.0649C148.303 10.0649 144.298 17.4386 144.298 23.7489ZM152.955 23.2136C152.955 19.8183 154.882 15.7996 157.798 15.7996C160.21 15.7996 161.067 17.4276 161.067 19.6093C161.067 24.1303 158.865 26.9463 156.158 26.9463C154.242 26.9463 152.955 25.8866 152.955 23.2099V23.2136ZM119.189 22.7626C119.255 27.3606 121.373 32.6846 130.821 32.6846C136.399 32.6846 141.695 29.5569 143.03 23.4556H134.917C134.285 25.3073 132.876 27.0086 130.758 27.0086C128.441 27.0086 127.731 25.5163 127.941 22.4656C128.007 20.8413 128.934 15.6603 132.736 15.6603C135.421 15.6603 135.631 18.2159 135.564 19.2059H143.669C143.747 13.0386 139.367 10.0649 132.946 10.0649C124.558 10.0649 119.196 16.3753 119.196 22.7626H119.189ZM60.1626 13.9846L61.0157 10.9413H53.0762L48.6228 32.3656H56.8345L59.2469 21.0209C59.7397 18.7623 60.5965 16.9399 63.2148 16.9399C64.5534 16.9399 65.55 17.6476 65.55 18.9786C65.55 19.8293 65.1234 21.3033 64.9028 22.5793L62.7846 32.3656H70.8565L73.4785 20.2473C73.8316 18.6999 74.0485 17.1489 74.0485 16.1589C74.0485 11.7186 70.4961 10.3876 67.6792 10.3876C64.1268 10.3876 61.8689 12.0779 60.1589 13.9883L60.1626 13.9846ZM100.592 14.5969V14.5199L101.442 10.8386H93.4837L88.9936 32.3693H97.2494L99.1763 23.3786C100.026 19.4113 101.732 17.8529 104.361 17.8529C105.638 17.8529 106.421 17.9299 107.774 18.4213L109.337 11.0549C108.697 10.7689 107.984 10.7029 107.002 10.7029C104.361 10.7029 101.872 12.5436 100.596 14.5933L100.592 14.5969ZM111.249 11.0219L106.789 32.3656H115.022L119.501 11.0219H111.249Z" fill="url(#paint0_radial_647_1332)"/>
<defs>
<radialGradient id="paint0_radial_647_1332" cx="0" cy="0" r="1" gradientUnits="userSpaceOnUse" gradientTransform="translate(117.056 -6.6734) scale(155.886 155.43)">
<stop stop-color="#4957AE"/>
<stop offset="0.6" stop-color="#191935"/>
<stop offset="1" stop-color="#191935"/>
</radialGradient>
</defs>
</svg>
